<?xml version="1.0" standalone="no"?>
<!DOCTYPE svg PUBLIC "-//W3C//DTD SVG 1.1//EN" "http://www.w3.org/Graphics/SVG/1.1/DTD/svg11.dtd" >
<svg xmlns="http://www.w3.org/2000/svg">
<metadata></metadata>
<defs>
<font id="matt_smith_doctor_whoregular" horiz-adv-x="544" >
<font-face units-per-em="2048" ascent="1638" descent="-410" />
<missing-glyph horiz-adv-x="256" />
<glyph horiz-adv-x="0" />
<glyph horiz-adv-x="0" />
<glyph unicode="&#xd;" horiz-adv-x="0" />
<glyph unicode=" "  horiz-adv-x="256" />
<glyph unicode="&#x09;" horiz-adv-x="256" />
<glyph unicode="&#xa0;" horiz-adv-x="256" />
<glyph unicode="A" d="M0 0v32h32v864q0 26 18 44q18 20 46 20h320q26 0 44 -20q20 -18 20 -44v-896h-192v224q0 12 -10 22t-22 10q-14 0 -24 -10q-8 -10 -8 -22v-224h-224zM224 480q0 -14 8 -24q10 -8 24 -8q12 0 22 8q10 10 10 24v384q0 12 -10 22t-22 10q-14 0 -24 -10q-8 -10 -8 -22v-384z " />
<glyph unicode="B" d="M0 0v32h32v896h-32v32h416q26 0 44 -20q20 -18 20 -44v-832q0 -28 -20 -46q-18 -18 -44 -18h-416zM224 64h64v288q0 12 -10 22t-22 10q-14 0 -24 -10q-8 -10 -8 -22v-288zM224 608q0 -14 8 -24q10 -8 24 -8q12 0 22 8q10 10 10 24v288h-64v-288z" />
<glyph unicode="C" horiz-adv-x="512" d="M0 64v832q0 26 18 44q18 20 46 20h320q26 0 44 -20q20 -18 20 -44v-256h-192v160q0 12 -10 22t-22 10q-14 0 -24 -10q-8 -10 -8 -22v-640q0 -14 8 -24q10 -8 24 -8q12 0 22 8q10 10 10 24v160h192v-256q0 -28 -20 -46q-18 -18 -44 -18h-320q-28 0 -46 18t-18 46z" />
<glyph unicode="D" d="M0 0v32h32v896h-32v32h416q26 0 44 -20q20 -18 20 -44v-832q0 -28 -20 -46q-18 -18 -44 -18h-416zM224 160q0 -14 8 -24q10 -8 24 -8q12 0 22 8q10 10 10 24v640q0 12 -10 22t-22 10q-14 0 -24 -10q-8 -10 -8 -22v-640z" />
<glyph unicode="E" horiz-adv-x="512" d="M0 64v896h384q26 0 44 -20q20 -18 20 -44v-64h-192v-256h128q26 0 44 -20q20 -18 20 -44v-64h-192v-320h192v-64q0 -28 -20 -46q-18 -18 -44 -18h-320q-28 0 -46 18t-18 46z" />
<glyph unicode="F" d="M0 0v32h32v864q0 26 18 44q18 20 46 20h320q26 0 44 -20q20 -18 20 -44v-64h-192v-256h128q26 0 44 -20q20 -18 20 -44v-64h-192v-448h-288z" />
<glyph unicode="G" d="M0 64v832q0 26 18 44q18 20 46 20h384v-128h-256v-672q0 -14 8 -24q10 -8 24 -8q12 0 22 8q10 10 10 24v416h192v-544h32v-32h-416q-28 0 -46 18t-18 46z" />
<glyph unicode="H" d="M0 0v960h192v-352q0 -14 8 -24q10 -8 24 -8q12 0 22 8q10 10 10 24v352h224v-32h-32v-896h32v-32h-224v352q0 12 -10 22t-22 10q-14 0 -24 -10q-8 -10 -8 -22v-352h-192z" />
<glyph unicode="I" horiz-adv-x="288" d="M0 0v960h224v-32h-32v-896h32v-32h-224z" />
<glyph unicode="J" horiz-adv-x="416" d="M0 0v64q0 26 18 44q18 20 46 20h64v832h224v-32h-32v-864q0 -28 -20 -46q-18 -18 -44 -18h-256z" />
<glyph unicode="K" d="M0 0v32h32v896h-32v32h224v-352q0 -14 8 -24q10 -8 24 -8q12 0 22 8q10 10 10 24v352h128q26 0 44 -20q20 -18 20 -44v-320q0 -28 -20 -46q-18 -18 -44 -18h-32v-64h32q26 0 44 -20q20 -18 20 -44v-384h-192v352q0 12 -10 22t-22 10q-14 0 -24 -10q-8 -10 -8 -22v-352 h-224z" />
<glyph unicode="L" horiz-adv-x="416" d="M0 928v32h224v-832h64q26 0 44 -20q20 -18 20 -44v-64h-256q-28 0 -46 18t-18 46v864h-32z" />
<glyph unicode="M" horiz-adv-x="800" d="M0 0v32h32v896h-32v32h672q26 0 44 -20q20 -18 20 -44v-896h-192v800q0 12 -10 22t-22 10q-14 0 -24 -10q-8 -10 -8 -22v-800h-192v800q0 12 -10 22t-22 10q-14 0 -24 -10q-8 -10 -8 -22v-800h-224z" />
<glyph unicode="N" d="M0 0v32h32v896h-32v32h480v-960h-192v800q0 12 -10 22t-22 10q-14 0 -24 -10q-8 -10 -8 -22v-800h-224z" />
<glyph unicode="O" horiz-adv-x="512" d="M0 64v832q0 26 18 44q18 20 46 20h320q26 0 44 -20q20 -18 20 -44v-832q0 -28 -20 -46q-18 -18 -44 -18h-320q-28 0 -46 18t-18 46zM192 160q0 -14 8 -24q10 -8 24 -8q12 0 22 8q10 10 10 24v640q0 12 -10 22t-22 10q-14 0 -24 -10q-8 -10 -8 -22v-640z" />
<glyph unicode="P" d="M0 0v32h32v864q0 26 18 44q18 20 46 20h384v-640q0 -28 -20 -46q-18 -18 -44 -18h-128v544q0 12 -10 22t-22 10q-14 0 -24 -10q-8 -10 -8 -22v-800h-224z" />
<glyph unicode="Q" horiz-adv-x="512" d="M0 -64h448v-128h-448v128zM0 64v832q0 26 18 44q18 20 46 20h320q26 0 44 -20q20 -18 20 -44v-832q0 -28 -20 -46q-18 -18 -44 -18h-320q-28 0 -46 18t-18 46zM192 160q0 -14 8 -24q10 -8 24 -8q12 0 22 8q10 10 10 24v640q0 12 -10 22t-22 10q-14 0 -24 -10 q-8 -10 -8 -22v-640z" />
<glyph unicode="R" d="M0 0v32h32v896h-32v32h416q26 0 44 -20q20 -18 20 -44v-320q0 -28 -20 -46q-18 -18 -44 -18h-32v-64h32q26 0 44 -20q20 -18 20 -44v-384h-192v800q0 12 -10 22t-22 10q-14 0 -24 -10q-8 -10 -8 -22v-800h-224z" />
<glyph unicode="S" d="M0 0v32h32v96h256v448h128q26 0 44 -20q20 -18 20 -44v-448q0 -28 -20 -46q-18 -18 -44 -18h-416zM32 448v448q0 26 18 44q18 20 46 20h384v-128h-256v-448h-128q-28 0 -46 18t-18 46z" />
<glyph unicode="T" horiz-adv-x="512" d="M0 832v128h448v-128h-128v-832h-192v832h-128z" />
<glyph unicode="U" horiz-adv-x="512" d="M0 64v896h192v-800q0 -14 8 -24q10 -8 24 -8q12 0 22 8q10 10 10 24v800h192v-896q0 -28 -20 -46q-18 -18 -44 -18h-320q-28 0 -46 18t-18 46z" />
<glyph unicode="V" d="M0 0v32h32v928h192v-800q0 -14 8 -24q10 -8 24 -8q12 0 22 8q10 10 10 24v736q0 26 18 44q18 20 46 20h128v-896q0 -28 -20 -46q-18 -18 -44 -18h-416z" />
<glyph unicode="W" horiz-adv-x="800" d="M0 64v896h192v-800q0 -14 8 -24q10 -8 24 -8q12 0 22 8q10 10 10 24v800h192v-800q0 -14 8 -24q10 -8 24 -8q12 0 22 8q10 10 10 24v800h224v-32h-32v-896h32v-32h-672q-28 0 -46 18t-18 46z" />
<glyph unicode="X" horiz-adv-x="512" d="M0 0v384q0 26 18 44q18 20 46 20h32v64h-32q-28 0 -46 18t-18 46v384h192v-448h64v448h192v-384q0 -28 -20 -46q-18 -18 -44 -18h-32v-64h32q26 0 44 -20q20 -18 20 -44v-384h-192v448h-64v-448h-192z" />
<glyph unicode="Y" d="M0 0v128h256v64h-192q-28 0 -46 18t-18 46v704h192v-608q0 -14 8 -24q10 -8 24 -8q12 0 22 8q10 10 10 24v608h224v-32h-32v-864q0 -28 -20 -46q-18 -18 -44 -18h-384z" />
<glyph unicode="Z" horiz-adv-x="480" d="M-64 32v32h32v448q0 26 18 44q18 20 46 20h128v-448h256v-128h-448v32h-32zM-64 928v32h480v-512q0 -28 -20 -46q-18 -18 -44 -18h-128v448h-256v96h-32z" />
<glyph unicode="a" d="M0 0v32h32v864q0 26 18 44q18 20 46 20h320q26 0 44 -20q20 -18 20 -44v-896h-192v224q0 12 -10 22t-22 10q-14 0 -24 -10q-8 -10 -8 -22v-224h-224zM224 480q0 -14 8 -24q10 -8 24 -8q12 0 22 8q10 10 10 24v384q0 12 -10 22t-22 10q-14 0 -24 -10q-8 -10 -8 -22v-384z " />
<glyph unicode="b" d="M0 0v32h32v896h-32v32h416q26 0 44 -20q20 -18 20 -44v-832q0 -28 -20 -46q-18 -18 -44 -18h-416zM224 64h64v288q0 12 -10 22t-22 10q-14 0 -24 -10q-8 -10 -8 -22v-288zM224 608q0 -14 8 -24q10 -8 24 -8q12 0 22 8q10 10 10 24v288h-64v-288z" />
<glyph unicode="c" horiz-adv-x="512" d="M0 64v832q0 26 18 44q18 20 46 20h320q26 0 44 -20q20 -18 20 -44v-256h-192v160q0 12 -10 22t-22 10q-14 0 -24 -10q-8 -10 -8 -22v-640q0 -14 8 -24q10 -8 24 -8q12 0 22 8q10 10 10 24v160h192v-256q0 -28 -20 -46q-18 -18 -44 -18h-320q-28 0 -46 18t-18 46z" />
<glyph unicode="d" d="M0 0v32h32v896h-32v32h416q26 0 44 -20q20 -18 20 -44v-832q0 -28 -20 -46q-18 -18 -44 -18h-416zM224 160q0 -14 8 -24q10 -8 24 -8q12 0 22 8q10 10 10 24v640q0 12 -10 22t-22 10q-14 0 -24 -10q-8 -10 -8 -22v-640z" />
<glyph unicode="e" horiz-adv-x="512" d="M0 64v896h384q26 0 44 -20q20 -18 20 -44v-64h-192v-256h128q26 0 44 -20q20 -18 20 -44v-64h-192v-320h192v-64q0 -28 -20 -46q-18 -18 -44 -18h-320q-28 0 -46 18t-18 46z" />
<glyph unicode="f" d="M0 0v32h32v864q0 26 18 44q18 20 46 20h320q26 0 44 -20q20 -18 20 -44v-64h-192v-256h128q26 0 44 -20q20 -18 20 -44v-64h-192v-448h-288z" />
<glyph unicode="g" d="M0 64v832q0 26 18 44q18 20 46 20h384v-128h-256v-672q0 -14 8 -24q10 -8 24 -8q12 0 22 8q10 10 10 24v416h192v-544h32v-32h-416q-28 0 -46 18t-18 46z" />
<glyph unicode="h" d="M0 0v960h192v-352q0 -14 8 -24q10 -8 24 -8q12 0 22 8q10 10 10 24v352h224v-32h-32v-896h32v-32h-224v352q0 12 -10 22t-22 10q-14 0 -24 -10q-8 -10 -8 -22v-352h-192z" />
<glyph unicode="i" horiz-adv-x="288" d="M0 0v960h224v-32h-32v-896h32v-32h-224z" />
<glyph unicode="j" horiz-adv-x="416" d="M0 0v64q0 26 18 44q18 20 46 20h64v832h224v-32h-32v-864q0 -28 -20 -46q-18 -18 -44 -18h-256z" />
<glyph unicode="k" d="M0 0v32h32v896h-32v32h224v-352q0 -14 8 -24q10 -8 24 -8q12 0 22 8q10 10 10 24v352h128q26 0 44 -20q20 -18 20 -44v-320q0 -28 -20 -46q-18 -18 -44 -18h-32v-64h32q26 0 44 -20q20 -18 20 -44v-384h-192v352q0 12 -10 22t-22 10q-14 0 -24 -10q-8 -10 -8 -22v-352 h-224z" />
<glyph unicode="l" horiz-adv-x="416" d="M0 928v32h224v-832h64q26 0 44 -20q20 -18 20 -44v-64h-256q-28 0 -46 18t-18 46v864h-32z" />
<glyph unicode="m" horiz-adv-x="800" d="M0 0v32h32v896h-32v32h672q26 0 44 -20q20 -18 20 -44v-896h-192v800q0 12 -10 22t-22 10q-14 0 -24 -10q-8 -10 -8 -22v-800h-192v800q0 12 -10 22t-22 10q-14 0 -24 -10q-8 -10 -8 -22v-800h-224z" />
<glyph unicode="n" d="M0 0v32h32v896h-32v32h480v-960h-192v800q0 12 -10 22t-22 10q-14 0 -24 -10q-8 -10 -8 -22v-800h-224z" />
<glyph unicode="o" horiz-adv-x="512" d="M0 64v832q0 26 18 44q18 20 46 20h320q26 0 44 -20q20 -18 20 -44v-832q0 -28 -20 -46q-18 -18 -44 -18h-320q-28 0 -46 18t-18 46zM192 160q0 -14 8 -24q10 -8 24 -8q12 0 22 8q10 10 10 24v640q0 12 -10 22t-22 10q-14 0 -24 -10q-8 -10 -8 -22v-640z" />
<glyph unicode="p" d="M0 0v32h32v864q0 26 18 44q18 20 46 20h384v-640q0 -28 -20 -46q-18 -18 -44 -18h-128v544q0 12 -10 22t-22 10q-14 0 -24 -10q-8 -10 -8 -22v-800h-224z" />
<glyph unicode="q" horiz-adv-x="512" d="M0 -64h448v-128h-448v128zM0 64v832q0 26 18 44q18 20 46 20h320q26 0 44 -20q20 -18 20 -44v-832q0 -28 -20 -46q-18 -18 -44 -18h-320q-28 0 -46 18t-18 46zM192 160q0 -14 8 -24q10 -8 24 -8q12 0 22 8q10 10 10 24v640q0 12 -10 22t-22 10q-14 0 -24 -10 q-8 -10 -8 -22v-640z" />
<glyph unicode="r" d="M0 0v32h32v896h-32v32h416q26 0 44 -20q20 -18 20 -44v-320q0 -28 -20 -46q-18 -18 -44 -18h-32v-64h32q26 0 44 -20q20 -18 20 -44v-384h-192v800q0 12 -10 22t-22 10q-14 0 -24 -10q-8 -10 -8 -22v-800h-224z" />
<glyph unicode="s" d="M0 0v32h32v96h256v448h128q26 0 44 -20q20 -18 20 -44v-448q0 -28 -20 -46q-18 -18 -44 -18h-416zM32 448v448q0 26 18 44q18 20 46 20h384v-128h-256v-448h-128q-28 0 -46 18t-18 46z" />
<glyph unicode="t" horiz-adv-x="512" d="M0 832v128h448v-128h-128v-832h-192v832h-128z" />
<glyph unicode="u" horiz-adv-x="512" d="M0 64v896h192v-800q0 -14 8 -24q10 -8 24 -8q12 0 22 8q10 10 10 24v800h192v-896q0 -28 -20 -46q-18 -18 -44 -18h-320q-28 0 -46 18t-18 46z" />
<glyph unicode="v" d="M0 0v32h32v928h192v-800q0 -14 8 -24q10 -8 24 -8q12 0 22 8q10 10 10 24v736q0 26 18 44q18 20 46 20h128v-896q0 -28 -20 -46q-18 -18 -44 -18h-416z" />
<glyph unicode="w" horiz-adv-x="800" d="M0 64v896h192v-800q0 -14 8 -24q10 -8 24 -8q12 0 22 8q10 10 10 24v800h192v-800q0 -14 8 -24q10 -8 24 -8q12 0 22 8q10 10 10 24v800h224v-32h-32v-896h32v-32h-672q-28 0 -46 18t-18 46z" />
<glyph unicode="x" horiz-adv-x="512" d="M0 0v384q0 26 18 44q18 20 46 20h32v64h-32q-28 0 -46 18t-18 46v384h192v-448h64v448h192v-384q0 -28 -20 -46q-18 -18 -44 -18h-32v-64h32q26 0 44 -20q20 -18 20 -44v-384h-192v448h-64v-448h-192z" />
<glyph unicode="y" d="M0 0v128h256v64h-192q-28 0 -46 18t-18 46v704h192v-608q0 -14 8 -24q10 -8 24 -8q12 0 22 8q10 10 10 24v608h224v-32h-32v-864q0 -28 -20 -46q-18 -18 -44 -18h-384z" />
<glyph unicode="z" horiz-adv-x="480" d="M-64 32v32h32v448q0 26 18 44q18 20 46 20h128v-448h256v-128h-448v32h-32zM-64 928v32h480v-512q0 -28 -20 -46q-18 -18 -44 -18h-128v448h-256v96h-32z" />
<glyph unicode="&#x2000;" horiz-adv-x="682" />
<glyph unicode="&#x2001;" horiz-adv-x="1365" />
<glyph unicode="&#x2002;" horiz-adv-x="682" />
<glyph unicode="&#x2003;" horiz-adv-x="1365" />
<glyph unicode="&#x2004;" horiz-adv-x="455" />
<glyph unicode="&#x2005;" horiz-adv-x="341" />
<glyph unicode="&#x2006;" horiz-adv-x="227" />
<glyph unicode="&#x2007;" horiz-adv-x="227" />
<glyph unicode="&#x2008;" horiz-adv-x="170" />
<glyph unicode="&#x2009;" horiz-adv-x="273" />
<glyph unicode="&#x200a;" horiz-adv-x="75" />
<glyph unicode="&#x202f;" horiz-adv-x="273" />
<glyph unicode="&#x205f;" horiz-adv-x="341" />
<glyph unicode="&#xe000;" horiz-adv-x="960" d="M0 0v960h960v-960h-960z" />
</font>
</defs>
</svg>
